<svg width="111" height="60" viewBox="0 0 111 60" fill="none" xmlns="http://www.w3.org/2000/svg">
<g opacity="0.6">
<path fill-rule="evenodd" clip-rule="evenodd" d="M110.77 9.88117L78.2431 31.0107L110.547 50.3655C105.139 56.2904 97.4021 60 88.81 60C72.4606 60 59.2068 46.5685 59.2068 30C59.2068 13.4315 72.4606 0 88.81 0C97.5207 0 105.353 3.81269 110.77 9.88117Z" fill="#F4F4F4"/>
<path fill-rule="evenodd" clip-rule="evenodd" d="M30 60C46.5685 60 60 46.5685 60 30C60 13.4315 46.5685 0 30 0C13.4315 0 0 13.4315 0 30C0 46.5685 13.4315 60 30 60ZM16 28C20.4183 28 24 24.4183 24 20C24 15.5817 20.4183 12 16 12C11.5817 12 8 15.5817 8 20C8 24.4183 11.5817 28 16 28Z" fill="#F4F4F4"/>
</g>
</svg>
