<svg width="240" height="30" viewBox="0 0 240 30" fill="none" xmlns="http://www.w3.org/2000/svg">
<path d="M0 28.7538V1.24615H10.56C12.4554 1.24615 14.1292 1.57846 15.5815 2.24308C17.0585 2.90769 18.2154 3.89231 19.0523 5.19693C19.8892 6.50154 20.3077 8.11385 20.3077 10.0338C20.3077 11.9046 19.8769 13.4923 19.0154 14.7969C18.1785 16.1015 17.0215 17.0985 15.5446 17.7877C14.0923 18.4523 12.4308 18.7846 10.56 18.7846H5.72308V28.7538H0ZM5.72308 13.8H10.5969C11.4092 13.8 12.1108 13.64 12.7015 13.32C13.2923 13 13.7477 12.5569 14.0677 11.9908C14.4123 11.4246 14.5846 10.7723 14.5846 10.0338C14.5846 9.27077 14.4123 8.60616 14.0677 8.04C13.7477 7.47385 13.2923 7.03077 12.7015 6.71077C12.1108 6.39077 11.4092 6.23077 10.5969 6.23077H5.72308V13.8Z" fill="#2B2D42"/>
<path d="M23.3077 28.7538V1.24615H33.8308C35.7261 1.24615 37.4 1.57846 38.8523 2.24308C40.3292 2.90769 41.4861 3.89231 42.3231 5.19693C43.16 6.50154 43.5784 8.11385 43.5784 10.0338C43.5784 11.9046 43.1477 13.5046 42.2861 14.8338C41.4246 16.1385 40.2677 17.1231 38.8154 17.7877L45.0923 28.7538H38.6677L31.8738 16.6062L35.5661 18.7846H29.0308V28.7538H23.3077ZM29.0308 13.8H33.8677C34.68 13.8 35.3815 13.64 35.9723 13.32C36.5631 13 37.0184 12.5569 37.3384 11.9908C37.6831 11.4246 37.8554 10.7723 37.8554 10.0338C37.8554 9.27077 37.6831 8.60616 37.3384 8.04C37.0184 7.47385 36.5631 7.03077 35.9723 6.71077C35.3815 6.39077 34.68 6.23077 33.8677 6.23077H29.0308V13.8Z" fill="#2B2D42"/>
<path fill-rule="evenodd" clip-rule="evenodd" d="M103.477 4.94056L87.2138 15.5053L103.366 25.1827C100.662 28.1452 96.7933 30 92.4973 30C84.3226 30 77.6957 23.2843 77.6957 15C77.6957 6.71573 84.3226 0 92.4973 0C96.8526 0 100.769 1.90633 103.477 4.94056Z" fill="#FFBA08"/>
<path fill-rule="evenodd" clip-rule="evenodd" d="M63.0923 30C71.3766 30 78.0923 23.2843 78.0923 15C78.0923 6.71573 71.3766 0 63.0923 0C54.808 0 48.0923 6.71573 48.0923 15C48.0923 23.2843 54.808 30 63.0923 30ZM56.0923 14C58.3014 14 60.0923 12.2091 60.0923 10C60.0923 7.79086 58.3014 6 56.0923 6C53.8831 6 52.0923 7.79086 52.0923 10C52.0923 12.2091 53.8831 14 56.0923 14Z" fill="#D90429"/>
<path d="M117.739 28.9754C115.573 28.9754 113.64 28.52 111.942 27.6092C110.243 26.6985 108.902 25.4554 107.917 23.88C106.957 22.28 106.477 20.4708 106.477 18.4523V1.02463H112.2V18.0831C112.2 19.1662 112.434 20.1508 112.902 21.0369C113.394 21.8985 114.059 22.5754 114.896 23.0677C115.733 23.56 116.68 23.8062 117.739 23.8062C118.822 23.8062 119.769 23.56 120.582 23.0677C121.419 22.5754 122.071 21.8985 122.539 21.0369C123.031 20.1508 123.277 19.1662 123.277 18.0831V1.02463H129V18.4523C129 20.4708 128.508 22.28 127.523 23.88C126.563 25.4554 125.234 26.6985 123.536 27.6092C121.837 28.52 119.905 28.9754 117.739 28.9754Z" fill="#2B2D42"/>
<path d="M143.225 29.1969C141.502 29.1969 139.877 28.8892 138.351 28.2738C136.849 27.6338 135.545 26.7354 134.437 25.5785C133.354 24.4215 132.542 23.0554 132 21.48L136.689 19.3754C137.379 20.8769 138.326 22.0585 139.533 22.92C140.763 23.7815 142.117 24.2123 143.594 24.2123C144.382 24.2123 145.059 24.0892 145.625 23.8431C146.191 23.5969 146.634 23.2646 146.954 22.8461C147.274 22.4031 147.434 21.8861 147.434 21.2954C147.434 20.6554 147.237 20.1138 146.843 19.6708C146.449 19.2031 145.834 18.8338 144.997 18.5631L139.606 16.7908C137.416 16.0769 135.766 15.0677 134.659 13.7631C133.551 12.4338 132.997 10.8461 132.997 8.99999C132.997 7.37538 133.391 5.94769 134.179 4.71692C134.991 3.48615 136.111 2.52615 137.539 1.83692C138.991 1.14769 140.653 0.80307 142.523 0.80307C144.173 0.80307 145.699 1.08615 147.102 1.6523C148.505 2.21845 149.711 3.01845 150.72 4.0523C151.754 5.08615 152.529 6.32922 153.046 7.78153L148.394 9.88615C147.877 8.60615 147.102 7.60922 146.068 6.89538C145.034 6.15692 143.853 5.78768 142.523 5.78768C141.76 5.78768 141.083 5.91076 140.493 6.15692C139.902 6.40307 139.446 6.75999 139.126 7.22769C138.806 7.67076 138.646 8.18769 138.646 8.77846C138.646 9.41845 138.856 9.98461 139.274 10.4769C139.693 10.9446 140.32 11.3138 141.157 11.5846L146.437 13.2831C148.653 13.9969 150.302 14.9938 151.385 16.2738C152.493 17.5538 153.046 19.1169 153.046 20.9631C153.046 22.5631 152.628 23.9908 151.791 25.2461C150.954 26.4769 149.797 27.4492 148.32 28.1631C146.868 28.8523 145.169 29.1969 143.225 29.1969Z" fill="#2B2D42"/>
<path d="M163.025 28.7538V6.23077H156.046V1.24615H175.616V6.23077H168.748V28.7538H163.025Z" fill="#2B2D42"/>
<path d="M193.2 29.1969C191.133 29.1969 189.213 28.84 187.44 28.1262C185.668 27.4123 184.117 26.4154 182.788 25.1354C181.483 23.8308 180.462 22.3169 179.723 20.5938C178.985 18.8708 178.616 17 178.616 14.9815C178.616 12.9631 178.973 11.0923 179.686 9.36922C180.425 7.64615 181.446 6.14461 182.751 4.86461C184.08 3.58461 185.631 2.58768 187.403 1.87384C189.176 1.15999 191.108 0.80307 193.2 0.80307C195.293 0.80307 197.225 1.15999 198.997 1.87384C200.769 2.58768 202.308 3.58461 203.613 4.86461C204.942 6.14461 205.963 7.64615 206.677 9.36922C207.416 11.0923 207.785 12.9631 207.785 14.9815C207.785 17 207.416 18.8708 206.677 20.5938C205.939 22.3169 204.905 23.8308 203.576 25.1354C202.271 26.4154 200.733 27.4123 198.96 28.1262C197.188 28.84 195.268 29.1969 193.2 29.1969ZM193.2 24.0277C194.456 24.0277 195.613 23.8061 196.671 23.3631C197.754 22.92 198.702 22.3046 199.514 21.5169C200.326 20.7046 200.954 19.7446 201.397 18.6369C201.84 17.5292 202.062 16.3108 202.062 14.9815C202.062 13.6523 201.84 12.4461 201.397 11.3631C200.954 10.2554 200.326 9.29538 199.514 8.48307C198.702 7.67076 197.754 7.05538 196.671 6.63692C195.613 6.19384 194.456 5.9723 193.2 5.9723C191.945 5.9723 190.776 6.19384 189.693 6.63692C188.634 7.05538 187.699 7.67076 186.886 8.48307C186.074 9.29538 185.446 10.2554 185.003 11.3631C184.56 12.4461 184.339 13.6523 184.339 14.9815C184.339 16.3108 184.56 17.5292 185.003 18.6369C185.446 19.7446 186.074 20.7046 186.886 21.5169C187.699 22.3046 188.634 22.92 189.693 23.3631C190.776 23.8061 191.945 24.0277 193.2 24.0277Z" fill="#2B2D42"/>
<path d="M210.785 28.7538V1.24615H216.323L226.625 14.9077H224.04L234.046 1.24615H239.585V28.7538H233.862V7.56L236.151 8.07693L225.554 21.7385H224.816L214.588 8.07693L216.508 7.56V28.7538H210.785Z" fill="#2B2D42"/>
</svg>
