<svg width="169" height="62" viewBox="0 0 169 62" fill="none" xmlns="http://www.w3.org/2000/svg">
<path d="M36.6665 1.08834C36.6946 0.536774 37.1646 0.112458 37.7161 0.140605C39.8629 0.250156 42.0222 0.692001 44.1744 1.51833C44.6899 1.71629 44.9474 2.29474 44.7495 2.81032C44.5515 3.32591 43.9731 3.5834 43.4575 3.38544C41.5039 2.63536 39.5522 2.23691 37.6142 2.13801C37.0626 2.10986 36.6383 1.63991 36.6665 1.08834Z" fill="#D90429"/>
<path d="M32.3792 1.52809C32.5112 2.06439 32.1834 2.6061 31.6471 2.73803C29.7268 3.21047 27.8239 3.93802 25.9533 4.87594C25.4596 5.12348 24.8587 4.92394 24.6112 4.43024C24.3636 3.93654 24.5632 3.33564 25.0569 3.08809C27.0417 2.09288 29.0848 1.30878 31.1693 0.795945C31.7056 0.664005 32.2473 0.991799 32.3792 1.52809Z" fill="#D90429"/>
<path d="M48.5054 4.90123C48.8315 4.45548 49.4572 4.35847 49.9029 4.68455C51.5322 5.87645 53.1422 7.3182 54.7267 9.0299C55.1019 9.43519 55.0774 10.0679 54.6721 10.4431C54.2668 10.8182 53.6342 10.7938 53.259 10.3885C51.7528 8.76144 50.2378 7.40752 48.7221 6.29874C48.2763 5.97267 48.1793 5.34698 48.5054 4.90123Z" fill="#D90429"/>
<path d="M20.9383 6.69055C21.2619 7.13812 21.1613 7.76325 20.7138 8.08683C19.0693 9.27568 17.4706 10.6008 15.9301 12.0233C15.5244 12.398 14.8917 12.3728 14.517 11.9671C14.1424 11.5614 14.1675 10.9287 14.5733 10.554C16.165 9.08411 17.8253 7.70717 19.542 6.46603C19.9896 6.14246 20.6147 6.24298 20.9383 6.69055Z" fill="#D90429"/>
<path d="M57.3596 13.8108C57.8118 13.4937 58.4354 13.6032 58.7525 14.0554C59.9111 15.7075 61.0532 17.5244 62.1761 19.5154C62.4474 19.9964 62.2774 20.6063 61.7964 20.8777C61.3153 21.149 60.7054 20.979 60.4341 20.4979C59.3403 18.5586 58.2327 16.7976 57.115 15.2037C56.7979 14.7515 56.9074 14.1279 57.3596 13.8108Z" fill="#D90429"/>
<path d="M11.4942 15.0488C11.9054 15.4175 11.9398 16.0498 11.571 16.4609C10.1716 18.0215 8.84444 19.6368 7.60169 21.2675C7.26694 21.7067 6.63946 21.7915 6.2002 21.4567C5.76093 21.1219 5.67621 20.4945 6.01097 20.0552C7.2836 18.3853 8.64458 16.7287 10.0821 15.1257C10.4508 14.7145 11.083 14.6801 11.4942 15.0488Z" fill="#D90429"/>
<path d="M63.7512 24.6795C64.2506 24.4437 64.8466 24.6574 65.0824 25.1569C65.5308 26.1067 65.9757 27.0878 66.4168 28.1007C66.8166 29.0187 67.2278 29.9124 67.65 30.7821C67.8911 31.279 67.6838 31.8773 67.187 32.1184C66.6901 32.3596 66.0919 32.1523 65.8507 31.6554C65.4163 30.7605 64.9937 29.8419 64.5832 28.8993C64.1498 27.9042 63.7133 26.9416 63.2738 26.0107C63.038 25.5113 63.2518 24.9153 63.7512 24.6795Z" fill="#D90429"/>
<path d="M3.7109 24.9897C4.17391 25.2908 4.3052 25.9102 4.00414 26.3732C3.42518 27.2636 2.87603 28.1456 2.35871 29.0125C2.07569 29.4867 1.4618 29.6417 0.987543 29.3587C0.513289 29.0757 0.358266 28.4618 0.641288 27.9875C1.17182 27.0985 1.73454 26.1948 2.32742 25.283C2.62848 24.82 3.24789 24.6887 3.7109 24.9897Z" fill="#D90429"/>
<path d="M69.0425 35.5514C69.5155 35.2663 70.1301 35.4187 70.4151 35.8917C71.4497 37.6085 72.5339 39.2129 73.6631 40.7105C73.9956 41.1515 73.9076 41.7786 73.4666 42.111C73.0257 42.4435 72.3986 42.3556 72.0661 41.9146C70.894 40.36 69.7712 38.6981 68.7021 36.924C68.417 36.451 68.5694 35.8364 69.0425 35.5514Z" fill="#D90429"/>
<path d="M165.245 45.2624C165.163 45.3119 165.08 45.3615 164.997 45.411C164.523 45.6944 163.909 45.5398 163.626 45.0658C163.343 44.5918 163.497 43.9777 163.971 43.6944C164.704 43.2562 165.415 42.8191 166.103 42.3845L153.664 37.9417C153.144 37.756 152.873 37.1838 153.058 36.6637C153.244 36.1436 153.816 35.8725 154.336 36.0583L168.336 41.0583C168.828 41.2338 169.097 41.7545 168.968 42.2502C169.032 42.4954 169.002 42.7646 168.865 43.001L163.365 52.501C163.089 52.979 162.477 53.1422 161.999 52.8654C161.521 52.5887 161.358 51.9769 161.635 51.499L165.245 45.2624Z" fill="#D90429"/>
<path d="M76.0032 45.1056C76.4025 44.7241 77.0355 44.7386 77.417 45.138C78.7825 46.5675 80.1987 47.8713 81.6593 49.0573C82.0881 49.4054 82.1534 50.0352 81.8053 50.4639C81.4572 50.8927 80.8274 50.958 80.3987 50.6099C78.8721 49.3704 77.3939 48.0093 75.9708 46.5194C75.5893 46.1201 75.6038 45.4871 76.0032 45.1056Z" fill="#D90429"/>
<path d="M160.209 46.9871C160.468 47.4752 160.282 48.0804 159.794 48.3389C158.09 49.2412 156.309 50.1327 154.462 51.0003C153.962 51.2351 153.366 51.0202 153.131 50.5203C152.897 50.0204 153.112 49.4248 153.611 49.19C155.43 48.3362 157.182 47.459 158.857 46.5716C159.345 46.313 159.951 46.4991 160.209 46.9871Z" fill="#D90429"/>
<path d="M149.547 52.101C149.757 52.6115 149.514 53.1962 149.004 53.4069C147.19 54.1553 145.329 54.8729 143.429 55.5495C142.909 55.7347 142.337 55.4632 142.152 54.9429C141.966 54.4226 142.238 53.8506 142.758 53.6654C144.626 53.0003 146.457 52.2945 148.241 51.5581C148.751 51.3474 149.336 51.5905 149.547 52.101Z" fill="#D90429"/>
<path d="M85.0076 52.7315C85.2961 52.2605 85.9117 52.1126 86.3827 52.4011C88.0457 53.4198 89.7537 54.3122 91.4994 55.0871C92.0042 55.3112 92.2317 55.9021 92.0076 56.4069C91.7835 56.9117 91.1927 57.1392 90.6879 56.9151C88.8638 56.1053 87.0777 55.1722 85.338 54.1065C84.867 53.8181 84.7191 53.2024 85.0076 52.7315Z" fill="#D90429"/>
<path d="M138.427 56.1622C138.584 56.6915 138.283 57.2485 137.754 57.4062C135.855 57.9721 133.929 58.4903 131.982 58.9516C131.444 59.0789 130.905 58.7464 130.778 58.209C130.651 57.6716 130.983 57.1328 131.521 57.0054C133.429 56.5534 135.319 56.0451 137.183 55.4895C137.712 55.3318 138.269 55.633 138.427 56.1622Z" fill="#D90429"/>
<path d="M95.6823 57.7644C95.8414 57.2355 96.3991 56.9357 96.9279 57.0947C98.7793 57.6514 100.663 58.0954 102.57 58.4358C103.114 58.5329 103.476 59.0523 103.379 59.596C103.282 60.1397 102.762 60.5017 102.219 60.4047C100.239 60.0515 98.2808 59.59 96.352 59.01C95.8231 58.851 95.5233 58.2933 95.6823 57.7644Z" fill="#D90429"/>
<path d="M126.938 58.9951C127.031 59.5395 126.665 60.0563 126.12 60.1494C124.152 60.4862 122.171 60.7574 120.185 60.9536C119.636 61.0079 119.146 60.6064 119.092 60.0568C119.037 59.5071 119.439 59.0176 119.989 58.9633C121.924 58.772 123.858 58.5074 125.783 58.1781C126.328 58.0849 126.844 58.4507 126.938 58.9951Z" fill="#D90429"/>
<path d="M107.268 60.0782C107.308 59.5274 107.788 59.1136 108.339 59.154C110.267 59.2954 112.211 59.3439 114.162 59.3085C114.714 59.2985 115.17 59.738 115.18 60.2902C115.19 60.8424 114.75 61.2982 114.198 61.3082C112.19 61.3446 110.185 61.2947 108.192 61.1486C107.641 61.1082 107.228 60.629 107.268 60.0782Z" fill="#D90429"/>
</svg>
