<svg width="159" height="63" viewBox="0 0 159 63" fill="none" xmlns="http://www.w3.org/2000/svg">
<path d="M21.0348 21.2195C20.8222 20.7098 21.063 20.1242 21.5727 19.9115C23.5565 19.0839 25.695 18.5506 27.9931 18.3672C28.5436 18.3233 29.0255 18.734 29.0695 19.2845C29.1134 19.835 28.7027 20.3169 28.1522 20.3609C26.0662 20.5273 24.1337 21.0102 22.3427 21.7573C21.833 21.97 21.2474 21.7292 21.0348 21.2195Z" fill="#F4F4F4"/>
<path d="M17.3572 23.4664C17.7076 23.8932 17.6457 24.5234 17.2189 24.8738C15.6905 26.1288 14.2879 27.6063 13.0053 29.2596C12.6668 29.696 12.0386 29.7753 11.6022 29.4368C11.1658 29.0983 11.0865 28.4701 11.425 28.0337C12.786 26.2794 14.2906 24.6904 15.9497 23.3281C16.3766 22.9776 17.0067 23.0396 17.3572 23.4664Z" fill="#F4F4F4"/>
<path d="M33.36 19.5497C33.4618 19.0069 33.9843 18.6494 34.5271 18.7511C36.5113 19.1232 38.5859 19.7289 40.7539 20.5892C41.2672 20.7929 41.5183 21.3742 41.3146 21.8875C41.1109 22.4009 40.5296 22.6519 40.0162 22.4482C37.9554 21.6305 36.0043 21.063 34.1586 20.7169C33.6157 20.6151 33.2582 20.0925 33.36 19.5497Z" fill="#F4F4F4"/>
<path d="M9.26443 33.0609C9.74948 33.325 9.92859 33.9323 9.66449 34.4173C8.69415 36.1995 7.82383 38.0848 7.04813 40.0328C6.84382 40.5459 6.26224 40.7963 5.74914 40.592C5.23603 40.3876 4.98571 39.8061 5.19002 39.293C5.99152 37.2801 6.89497 35.3214 7.90798 33.4609C8.17208 32.9759 8.77939 32.7968 9.26443 33.0609Z" fill="#F4F4F4"/>
<path d="M45.1923 23.7657C45.4633 23.2845 46.0732 23.1141 46.5544 23.3852C48.3125 24.3756 50.1268 25.5216 51.9991 26.833C52.4514 27.1499 52.5613 27.7734 52.2444 28.2258C51.9276 28.6782 51.304 28.788 50.8517 28.4712C49.028 27.1938 47.2689 26.0832 45.5728 25.1277C45.0916 24.8567 44.9212 24.2469 45.1923 23.7657Z" fill="#F4F4F4"/>
<path d="M4.35225 44.6765C4.88229 44.8317 5.18618 45.3871 5.03101 45.9172C4.44209 47.9288 3.94197 49.9587 3.52468 51.9661C3.41227 52.5068 2.8828 52.854 2.34208 52.7416C1.80135 52.6292 1.45413 52.0998 1.56654 51.559C1.99387 49.5034 2.50663 47.4216 3.11157 45.3553C3.26674 44.8252 3.82221 44.5213 4.35225 44.6765Z" fill="#F4F4F4"/>
<path d="M55.6486 30.8117C55.9973 30.3835 56.6272 30.3191 57.0554 30.6678C57.8699 31.3312 58.6946 32.0242 59.5297 32.7476C60.2865 33.4031 61.0431 34.0318 61.7993 34.6342C62.2312 34.9783 62.3025 35.6075 61.9583 36.0395C61.6142 36.4714 60.9851 36.5426 60.5531 36.1985C59.775 35.5787 58.9973 34.9324 58.2202 34.2593C57.3999 33.5486 56.5906 32.8687 55.7924 32.2186C55.3642 31.8698 55.2998 31.2399 55.6486 30.8117Z" fill="#F4F4F4"/>
<path d="M1.62127 57.003C2.16888 57.0748 2.55462 57.5769 2.48286 58.1245C2.34486 59.1776 2.23012 60.2102 2.13756 61.2154C2.08693 61.7654 1.60005 62.1701 1.05009 62.1195C0.500131 62.0689 0.0953512 61.582 0.145988 61.032C0.240908 60.0011 0.358501 58.943 0.499818 57.8646C0.571577 57.317 1.07367 56.9313 1.62127 57.003Z" fill="#F4F4F4"/>
<path d="M65.1137 38.3355C65.4174 37.8742 66.0375 37.7464 66.4988 38.0501C68.1729 39.1523 69.8434 40.1317 71.5084 40.9954C71.9986 41.2497 72.1899 41.8533 71.9356 42.3435C71.6813 42.8338 71.0777 43.025 70.5874 42.7707C68.8592 41.8742 67.1291 40.8596 65.399 39.7206C64.9377 39.4169 64.81 38.7968 65.1137 38.3355Z" fill="#F4F4F4"/>
<path d="M156.087 5.57767C156.034 5.6579 155.981 5.73825 155.928 5.81872C155.622 6.27893 155.002 6.4045 154.542 6.09917C154.081 5.79384 153.956 5.17325 154.261 4.71304C154.733 4.00153 155.186 3.30027 155.62 2.6112L142.48 3.97205C141.931 4.02895 141.44 3.62975 141.383 3.0804C141.326 2.53105 141.725 2.03959 142.274 1.9827L157.061 0.451162C157.581 0.397389 158.048 0.750998 158.146 1.25371C158.309 1.44758 158.399 1.70303 158.377 1.9754L157.516 12.9188C157.472 13.4694 156.991 13.8806 156.44 13.8372C155.89 13.7939 155.478 13.3124 155.522 12.7618L156.087 5.57767Z" fill="#F4F4F4"/>
<path d="M75.5161 43.9502C75.7117 43.4337 76.289 43.1736 76.8054 43.3692C78.6541 44.0694 80.4944 44.6344 82.3238 45.0739C82.8608 45.2029 83.1916 45.7428 83.0626 46.2798C82.9336 46.8168 82.3937 47.1476 81.8567 47.0186C79.9446 46.5593 78.0238 45.9693 76.097 45.2395C75.5806 45.0439 75.3205 44.4666 75.5161 43.9502Z" fill="#F4F4F4"/>
<path d="M152.289 9.30693C152.732 9.63561 152.826 10.2619 152.497 10.7057C151.35 12.2547 150.128 13.8276 148.836 15.4076C148.486 15.8351 147.856 15.8982 147.429 15.5486C147.001 15.199 146.938 14.569 147.288 14.1415C148.559 12.5865 149.762 11.039 150.89 9.51544C151.219 9.07161 151.845 8.97826 152.289 9.30693Z" fill="#F4F4F4"/>
<path d="M144.877 18.5216C145.288 18.8912 145.321 19.5235 144.951 19.9339C143.638 21.3917 142.269 22.8423 140.847 24.2726C140.458 24.6642 139.824 24.6661 139.433 24.2767C139.041 23.8873 139.039 23.2541 139.429 22.8625C140.827 21.4564 142.173 20.0297 143.465 18.5954C143.835 18.185 144.467 18.152 144.877 18.5216Z" fill="#F4F4F4"/>
<path d="M86.9299 46.9433C86.9869 46.394 87.4784 45.9948 88.0277 46.0518C89.9675 46.2531 91.8935 46.3209 93.8026 46.2667C94.3547 46.251 94.815 46.6858 94.8307 47.2378C94.8464 47.7899 94.4115 48.2502 93.8595 48.2659C91.8645 48.3226 89.8506 48.2517 87.8213 48.0412C87.272 47.9842 86.8729 47.4926 86.9299 46.9433Z" fill="#F4F4F4"/>
<path d="M136.599 26.9842C136.97 27.3936 136.938 28.026 136.529 28.3967C135.06 29.7265 133.546 31.0256 131.989 32.2819C131.559 32.6287 130.929 32.5613 130.582 32.1315C130.236 31.7017 130.303 31.0721 130.733 30.7253C132.259 29.4941 133.745 28.2199 135.186 26.9142C135.596 26.5435 136.228 26.5748 136.599 26.9842Z" fill="#F4F4F4"/>
<path d="M98.7314 46.8765C98.6466 46.3308 99.0203 45.8197 99.566 45.7349C101.476 45.4381 103.367 45.0258 105.234 44.5098C105.767 44.3627 106.317 44.675 106.465 45.2073C106.612 45.7396 106.299 46.2904 105.767 46.4375C103.829 46.973 101.863 47.4019 99.8731 47.7112C99.3273 47.7959 98.8162 47.4223 98.7314 46.8765Z" fill="#F4F4F4"/>
<path d="M127.457 34.498C127.776 34.9489 127.669 35.573 127.218 35.8919C125.588 37.0454 123.918 38.145 122.211 39.1788C121.739 39.465 121.124 39.3141 120.838 38.8417C120.552 38.3694 120.703 37.7544 121.175 37.4683C122.838 36.4604 124.469 35.3869 126.063 34.2591C126.514 33.9402 127.138 34.0471 127.457 34.498Z" fill="#F4F4F4"/>
<path d="M110.181 43.9637C109.98 43.4494 110.234 42.8693 110.748 42.6681C112.549 41.9634 114.323 41.1683 116.068 40.2944C116.561 40.0471 117.162 40.2469 117.41 40.7407C117.657 41.2345 117.457 41.8353 116.963 42.0826C115.168 42.9821 113.338 43.8023 111.477 44.5305C110.963 44.7318 110.382 44.478 110.181 43.9637Z" fill="#F4F4F4"/>
</svg>
